<?xml version="1.0" encoding="utf-8"?>
<!-- Generator: Adobe Illustrator 16.0.0, SVG Export Plug-In . SVG Version: 6.00 Build 0)  -->
<!DOCTYPE svg PUBLIC "-//W3C//DTD SVG 1.1//EN" "http://www.w3.org/Graphics/SVG/1.1/DTD/svg11.dtd">
<svg version="1.1" id="Layer_1" xmlns="http://www.w3.org/2000/svg" xmlns:xlink="http://www.w3.org/1999/xlink" x="0px" y="0px"
	 width="100px" height="100px" viewBox="0 0 100 100" enable-background="new 0 0 100 100" xml:space="preserve">
<g>
	<polygon fill="#B7C99C" points="74.365,59.658 49.807,56.07 25.23,59.662 49.789,68.31 	"/>
	<polygon fill="#769B3F" points="62.078,58.429 42.445,63.007 42.445,21.656 62.078,29.257 	"/>
	<polygon fill="#769B3F" points="48.998,57.96 34.299,60.525 34.299,30.753 48.998,34.037 	"/>
	<polygon fill="#4D622C" points="44.531,63.582 49.795,65.148 49.795,29.794 44.531,31.361 	"/>
	<polygon fill="#4D622C" points="42.445,62.958 36.715,61.253 36.715,24.507 42.445,21.656 	"/>
	<polygon fill="#4D622C" points="49.789,68.31 25.23,59.662 25.23,64.677 49.789,76.875 	"/>
	<polygon fill="#769B3F" points="74.365,64.671 49.789,76.875 49.789,68.31 74.365,59.658 	"/>
	<polygon fill="#4D622C" points="30.146,59.234 34.299,60.478 34.299,30.753 30.146,32.33 	"/>
	<polygon fill="#769B3F" points="67.467,35 49.795,29.738 49.795,65.148 67.467,59.867 	"/>
</g>
</svg>
