<?xml version="1.0" encoding="utf-8"?>
<!-- Generator: Adobe Illustrator 16.0.0, SVG Export Plug-In . SVG Version: 6.00 Build 0)  -->
<!DOCTYPE svg PUBLIC "-//W3C//DTD SVG 1.1//EN" "http://www.w3.org/Graphics/SVG/1.1/DTD/svg11.dtd">
<svg version="1.1" id="Layer_1" xmlns="http://www.w3.org/2000/svg" xmlns:xlink="http://www.w3.org/1999/xlink" x="0px" y="0px"
	 width="100px" height="100px" viewBox="0 0 100 100" enable-background="new 0 0 100 100" xml:space="preserve">
<g enable-background="new    ">
	<g>
		<path fill="#D9A741" d="M49.993,21.366c15.279,0,27.662,12.277,27.662,27.445c0,15.15-12.383,27.438-27.662,27.438
			c-15.266,0-27.648-12.287-27.648-27.438C22.345,33.644,34.728,21.366,49.993,21.366z"/>
	</g>
	<g enable-background="new    ">
		<defs>
			<path id="SVGID_1_" enable-background="new    " d="M77.655,48.812v2.383c0,15.152-12.383,27.439-27.662,27.439
				c-15.266,0-27.648-12.287-27.648-27.439v-2.383c0,15.15,12.383,27.438,27.648,27.438C65.272,76.249,77.655,63.962,77.655,48.812z
				"/>
		</defs>
		<use xlink:href="#SVGID_1_"  overflow="visible" fill="#866929"/>
		<clipPath id="SVGID_2_">
			<use xlink:href="#SVGID_1_"  overflow="visible"/>
		</clipPath>
		<g clip-path="url(#SVGID_2_)" enable-background="new    ">
			<path fill="#866929" d="M76.351,57.149v2.385c-0.537,1.686-1.238,3.297-2.082,4.822v-2.385
				C75.112,60.446,75.813,58.835,76.351,57.149"/>
			<path fill="#866929" d="M74.269,61.972v2.385c-4.697,8.508-13.807,14.277-24.275,14.277c-15.266,0-27.648-12.287-27.648-27.439
				v-2.383c0,15.15,12.383,27.438,27.648,27.438C60.462,76.249,69.571,70.481,74.269,61.972"/>
			<path fill="#866929" d="M77.655,48.812v2.383c0,1.332-0.096,2.639-0.281,3.92v-2.385C77.56,51.448,77.655,50.142,77.655,48.812"
				/>
			<path fill="#866929" d="M77.374,52.729v2.385c-0.223,1.516-0.564,2.996-1.023,4.42v-2.385
				C76.81,55.726,77.151,54.247,77.374,52.729"/>
		</g>
	</g>
</g>
<path fill="#FFFFFF" d="M67.5,39.195h-9v-1.791l-2.795,3.525l-1.285-1.816l-12.684,8.082H52.5v-1.922l6,2.244v-3.322h9v9h-9v-3.322
	l-6,2.244v-1.922H41.738l12.799,8.081l1.168-1.878l2.795,3.588v-1.791h9v9h-9v-3.598l-6.218-1.496l0.85-1.805L37.5,50.184v6.012h-10
	v-15h10v6.01l15.748-10.112l-0.965-1.804l6.217-1.496v-3.598h9V39.195z"/>
</svg>
