<?xml version="1.0" encoding="utf-8"?>
<!-- Generator: Adobe Illustrator 16.0.0, SVG Export Plug-In . SVG Version: 6.00 Build 0)  -->
<!DOCTYPE svg PUBLIC "-//W3C//DTD SVG 1.1//EN" "http://www.w3.org/Graphics/SVG/1.1/DTD/svg11.dtd">
<svg version="1.1" id="Layer_1" xmlns="http://www.w3.org/2000/svg" xmlns:xlink="http://www.w3.org/1999/xlink" x="0px" y="0px"
	 width="100px" height="100px" viewBox="0 0 100 100" enable-background="new 0 0 100 100" xml:space="preserve">
<g>
	<g>
		<g>
			<polygon fill="#F48334" points="54.383,50.081 29.102,50.081 29.102,67.429 54.383,61.687 			"/>
			<polygon fill="#F48334" points="61.951,50.081 34.477,50.081 34.477,70.099 61.951,62.353 			"/>
			<polygon fill="#F48334" points="67.943,50.081 41.186,50.081 41.186,73.433 67.943,63.71 			"/>
			<polygon fill="#F48334" points="49.793,77.706 49.793,50.081 72.811,50.081 72.811,66.276 			"/>
			<polygon fill="#9D5125" points="29.102,50.081 29.102,67.429 26.793,66.28 26.793,50.081 			"/>
			<polygon fill="#9D5125" points="34.477,50.081 34.477,70.099 31.648,68.694 31.648,50.081 			"/>
			<polygon fill="#9D5125" points="41.186,50.081 41.186,73.433 37.635,71.667 37.635,50.081 			"/>
			<polygon fill="#9D5125" points="45.207,75.427 45.207,50.081 49.793,50.081 49.793,77.706 			"/>
		</g>
	</g>
	<polygon fill="#F48334" points="72.812,44.527 49.799,40.599 49.799,22.488 72.812,33.919 	"/>
	<polygon fill="#9D5125" points="26.783,44.527 49.799,40.599 49.799,22.488 26.783,33.919 	"/>
	<polygon fill="#6B3C19" points="72.812,44.527 49.799,46.156 26.783,44.527 49.799,40.599 	"/>
</g>
</svg>
