<?xml version="1.0" encoding="utf-8"?>
<!-- Generator: Adobe Illustrator 16.0.0, SVG Export Plug-In . SVG Version: 6.00 Build 0)  -->
<!DOCTYPE svg PUBLIC "-//W3C//DTD SVG 1.1//EN" "http://www.w3.org/Graphics/SVG/1.1/DTD/svg11.dtd">
<svg version="1.1" id="Layer_1" xmlns="http://www.w3.org/2000/svg" xmlns:xlink="http://www.w3.org/1999/xlink" x="0px" y="0px"
	 width="100px" height="100px" viewBox="0 0 100 100" enable-background="new 0 0 100 100" xml:space="preserve">
<g>
	<polygon fill="#5194CF" points="57.248,78.772 68.562,73.155 68.562,27.775 57.241,22.176 	"/>
	<polygon fill="#215B98" points="41.148,78.772 29.836,73.155 29.836,27.775 41.156,22.176 	"/>
	<rect x="41.156" y="22.176" fill="#2E73B7" width="16.085" height="56.597"/>
	<polygon fill="#2E73B7" points="68.562,64.543 68.562,73.155 74.481,66.265 74.481,60.289 68.595,64.533 	"/>
	<polygon fill="#2E73B7" points="68.595,36.435 74.481,40.653 74.481,34.677 68.562,27.788 68.562,36.4 68.595,36.411 	"/>
	<polygon fill="#2E73B7" points="68.562,60.904 68.595,60.896 74.481,57.753 74.481,51.74 68.562,52.281 	"/>
	<polygon fill="#2E73B7" points="68.595,40.068 68.562,40.061 68.562,48.652 74.481,49.201 74.481,43.192 	"/>
	<polygon fill="#19486F" points="74.481,49.201 68.562,48.652 57.241,48.203 49.197,48.203 49.197,48.203 41.156,48.203 
		29.836,48.652 29.836,40.077 29.823,40.087 29.836,40.061 41.156,37.455 49.197,37.455 49.197,37.455 57.241,37.455 68.562,40.061 
		72.723,42.258 72.723,40.846 74.481,40.653 68.562,36.4 57.241,32.917 49.197,32.917 49.197,32.917 41.156,32.917 29.836,36.4 
		29.836,27.788 23.915,34.677 23.915,40.692 23.962,40.66 25.674,40.846 25.674,42.287 23.915,43.221 23.915,49.207 23.962,49.201 
		25.674,49.228 25.674,51.74 24.197,51.762 23.915,51.735 23.915,57.724 25.674,58.663 25.674,60.121 23.989,60.307 23.915,60.25 
		23.915,66.265 29.836,73.155 29.836,64.543 41.156,68.025 49.197,68.025 49.197,68.025 57.241,68.025 68.595,64.533 74.481,60.313 
		72.723,60.121 72.723,58.692 68.595,60.896 57.241,63.486 57.241,63.49 49.197,63.49 49.197,63.49 41.156,63.49 41.156,63.486 
		29.801,60.896 29.78,60.857 29.836,60.886 29.836,52.281 41.156,52.729 41.156,52.739 49.197,52.739 49.197,52.739 57.241,52.739 
		57.241,52.729 68.562,52.281 74.481,51.765 72.723,51.74 72.723,49.228 	"/>
</g>
</svg>
