<?xml version="1.0" encoding="utf-8"?>
<!-- Generator: Adobe Illustrator 16.0.0, SVG Export Plug-In . SVG Version: 6.00 Build 0)  -->
<!DOCTYPE svg PUBLIC "-//W3C//DTD SVG 1.1//EN" "http://www.w3.org/Graphics/SVG/1.1/DTD/svg11.dtd">
<svg version="1.1" id="Layer_1" xmlns="http://www.w3.org/2000/svg" xmlns:xlink="http://www.w3.org/1999/xlink" x="0px" y="0px"
	 width="100px" height="100px" viewBox="0 0 100 100" enable-background="new 0 0 100 100" xml:space="preserve">
<g>
	<polygon fill="#8C3323" points="49.893,63.182 69.774,67.961 69.774,30.887 49.893,35.669 	"/>
	<polygon fill="#E15343" points="69.774,30.887 73.593,32.783 73.593,66.074 69.774,67.969 	"/>
	<polygon fill="#E15343" points="58.562,37.498 49.893,35.367 49.893,21.016 58.562,25.32 	"/>
	<polyline fill="#E15343" points="49.893,77.922 58.562,73.614 58.562,61.436 49.893,63.568 49.893,77.922 	"/>
	<polygon fill="#E15343" points="58.562,55.562 49.893,56.66 49.893,42.308 58.562,43.386 	"/>
	<polygon fill="#E15343" points="49.893,63.182 30.009,67.961 30.009,30.887 49.893,35.669 	"/>
	<polygon fill="#8C3323" points="30.009,30.887 26.191,32.783 26.191,66.074 30.009,67.969 	"/>
	<polygon fill="none" points="41.223,37.498 49.893,35.369 49.893,21.016 41.223,25.32 	"/>
	<polyline fill="#8C3323" points="49.893,77.922 41.221,73.614 41.221,61.436 49.893,63.568 49.893,77.922 	"/>
	<polygon fill="#8C3323" points="41.221,55.562 49.893,56.66 49.893,42.308 41.221,43.386 	"/>
	<polygon fill="#8C3323" points="41.221,37.498 49.893,35.367 49.893,21.016 41.221,25.32 	"/>
	<polygon fill="#5E1F18" points="58.562,37.498 49.893,39.068 41.221,37.498 49.893,35.367 	"/>
	<polygon fill="#F2B0A8" points="58.562,61.436 49.893,59.856 41.221,61.436 49.893,63.584 	"/>
</g>
</svg>
